<mxfile host="app.diagrams.net" agent="Mozilla/5.0 (Windows NT 10.0; Win64; x64) AppleWebKit/537.36 (KHTML, like Gecko) Chrome/141.0.0.0 Safari/537.36" version="28.2.3">
  <diagram id="L-152_8k_9r_7-96-2_a" name="Page-1">
    <mxGraphModel dx="1042" dy="562" grid="0" gridSize="10" guides="1" tooltips="1" connect="1" arrows="1" fold="1" page="1" pageScale="1" pageWidth="850" pageHeight="1100" background="#ffffff" math="0" shadow="0">
      <root>
        <mxCell id="0" />
        <mxCell id="1" parent="0" />
        <mxCell id="2" value="&lt;b style=&quot;font-size: 20px;&quot;&gt;Context Level DFD (0 Level)&lt;/b&gt;" style="text;html=1;strokeColor=none;fillColor=none;align=center;verticalAlign=middle;whiteSpace=wrap;rounded=0;" parent="1" vertex="1">
          <mxGeometry x="175" y="40" width="450" height="30" as="geometry" />
        </mxCell>
        <mxCell id="3" value="ADMIN" style="rounded=1;whiteSpace=wrap;html=1;shadow=1;gradientColor=#E6E6E6;fillColor=#F5F5F5;strokeColor=#666666;arcSize=15;" parent="1" vertex="1">
          <mxGeometry x="100" y="180" width="120" height="50" as="geometry" />
        </mxCell>
        <mxCell id="4" value="0.0&lt;hr size=&quot;1&quot;&gt;Student Management&lt;br&gt;System" style="rounded=1;arcSize=50;whiteSpace=wrap;html=1;align=center;shadow=1;gradientColor=#E6E6E6;fillColor=#F5F5F5;strokeColor=#666666;verticalAlign=middle;spacingTop=-5;" parent="1" vertex="1">
          <mxGeometry x="420" y="150" width="220" height="110" as="geometry" />
        </mxCell>
        <mxCell id="5" value="Request for login" style="endArrow=classic;html=1;rounded=0;exitX=1;exitY=0.4;exitDx=0;exitDy=0;entryX=0;entryY=0.4;entryDx=0;entryDy=0;" parent="1" source="3" target="4" edge="1">
          <mxGeometry width="50" height="50" relative="1" as="geometry">
            <mxPoint x="230" y="194" as="sourcePoint" />
            <mxPoint x="420" y="194" as="targetPoint" />
          </mxGeometry>
        </mxCell>
        <mxCell id="6" value="Response" style="endArrow=classic;html=1;rounded=0;exitX=0;exitY=0.6;exitDx=0;exitDy=0;entryX=1;entryY=0.6;entryDx=0;entryDy=0;" parent="1" source="4" target="3" edge="1">
          <mxGeometry width="50" height="50" relative="1" as="geometry">
            <mxPoint x="420" y="216" as="sourcePoint" />
            <mxPoint x="230" y="216" as="targetPoint" />
          </mxGeometry>
        </mxCell>
        <mxCell id="7" value="&lt;span style=&quot;font-size: 16px;&quot;&gt;0 Level DFD for education&lt;/span&gt;" style="text;html=1;strokeColor=none;fillColor=none;align=center;verticalAlign=middle;whiteSpace=wrap;rounded=0;" parent="1" vertex="1">
          <mxGeometry x="150" y="320" width="500" height="30" as="geometry" />
        </mxCell>
      </root>
    </mxGraphModel>
  </diagram>
</mxfile>
